<?xml version="1.0" encoding="utf-8"?>
<!-- Generator: Adobe Illustrator 26.0.1, SVG Export Plug-In . SVG Version: 6.00 Build 0)  -->
<svg version="1.1" id="Layer_1" xmlns="http://www.w3.org/2000/svg" xmlns:xlink="http://www.w3.org/1999/xlink" x="0px" y="0px"
	 viewBox="0 0 196.03 159.68" style="enable-background:new 0 0 196.03 159.68;" xml:space="preserve">
<style type="text/css">
	.st0{fill:#08541D;}
	.st1{fill:#FCF9EE;}
</style>
<g>
	<g>
		<path d="M-1179.97,147.3v4.05h4.51v1.18h-4.51v4.14h5.01v1.24h-6.54v-11.85h6.54v1.24H-1179.97z"/>
		<path d="M-1159.49,146.26v11.65h-1.53v-9.3l-3.72,7.17h-1.36l-3.73-7.13v9.26h-1.53v-11.65h1.83l4.14,7.65l4.07-7.65H-1159.49z"/>
		<path d="M-1153.87,153.14v4.78h-1.53v-11.85h3.77c1.36,0,2.37,0.32,3.04,0.95c0.67,0.63,1.01,1.5,1.01,2.6
			c0,1.11-0.35,1.98-1.04,2.6c-0.7,0.62-1.7,0.93-3.01,0.93H-1153.87z M-1149.76,151.27c0.41-0.39,0.61-0.95,0.61-1.66
			c0-0.74-0.2-1.3-0.61-1.69c-0.41-0.39-1.08-0.58-2.01-0.58h-2.1v4.52h2.1C-1150.84,151.86-1150.17,151.66-1149.76,151.27z"/>
		<path d="M-1135.77,146.68c0.88,0.52,1.57,1.24,2.08,2.16c0.5,0.93,0.76,1.97,0.76,3.14c0,1.17-0.25,2.21-0.76,3.14
			c-0.5,0.93-1.2,1.65-2.08,2.16c-0.88,0.52-1.87,0.77-2.97,0.77c-1.1,0-2.09-0.26-2.98-0.77c-0.89-0.52-1.59-1.24-2.09-2.16
			c-0.5-0.92-0.76-1.97-0.76-3.14c0-1.17,0.25-2.21,0.76-3.14c0.5-0.93,1.2-1.65,2.09-2.16c0.89-0.51,1.89-0.77,2.98-0.77
			C-1137.64,145.91-1136.65,146.16-1135.77,146.68z M-1140.93,147.9c-0.65,0.38-1.15,0.91-1.51,1.61c-0.36,0.7-0.55,1.52-0.55,2.46
			c0,0.93,0.18,1.75,0.55,2.45c0.36,0.71,0.87,1.25,1.51,1.62c0.64,0.38,1.38,0.56,2.19,0.56c0.81,0,1.53-0.19,2.18-0.57
			c0.64-0.38,1.15-0.92,1.51-1.62c0.36-0.7,0.55-1.52,0.55-2.45c0-0.94-0.18-1.76-0.55-2.46c-0.36-0.7-0.87-1.24-1.51-1.61
			c-0.64-0.37-1.37-0.56-2.18-0.56C-1139.56,147.34-1140.29,147.52-1140.93,147.9z"/>
		<path d="M-1114.66,146.06l-3.01,11.85h-1.87l-2.74-9.69l-2.74,9.69h-1.87l-3.03-11.85h1.7l2.27,10.07l2.81-10.07h1.7l2.81,10.04
			l2.29-10.04H-1114.66z"/>
		<path d="M-1109.7,147.3v4.05h4.51v1.18h-4.51v4.14h5.01v1.24h-6.54v-11.85h6.54v1.24H-1109.7z"/>
		<path d="M-1094.8,157.91l-3.09-4.84h-1.66v4.84h-1.53v-11.85h3.9c1.34,0,2.35,0.32,3.03,0.97c0.67,0.65,1.01,1.5,1.01,2.56
			c0,0.96-0.27,1.74-0.81,2.33c-0.54,0.59-1.32,0.96-2.34,1.1l3.23,4.89H-1094.8z M-1099.56,151.96h2.24c1.74,0,2.61-0.76,2.61-2.29
			s-0.87-2.29-2.61-2.29h-2.24V151.96z"/>
		<path d="M-1074.78,146.06v11.85h-1.55v-5.48h-6.02v5.48h-1.53v-11.85h1.53v5.13h6.02v-5.13H-1074.78z"/>
		<path d="M-1069.16,147.3v4.05h4.51v1.18h-4.51v4.14h5.01v1.24h-6.54v-11.85h6.54v1.24H-1069.16z"/>
		<path d="M-1054.26,157.91l-3.09-4.84h-1.66v4.84h-1.53v-11.85h3.9c1.34,0,2.35,0.32,3.03,0.97c0.67,0.65,1.01,1.5,1.01,2.56
			c0,0.96-0.27,1.74-0.81,2.33c-0.54,0.59-1.32,0.96-2.34,1.1l3.23,4.89H-1054.26z M-1059.02,151.96h2.24
			c1.74,0,2.61-0.76,2.61-2.29s-0.87-2.29-2.61-2.29h-2.24V151.96z"/>
		<path d="M-1034.51,147.01c0.94,0.71,1.59,1.68,1.95,2.92h-1.61c-0.3-0.78-0.79-1.41-1.46-1.87c-0.67-0.47-1.5-0.7-2.47-0.7
			c-0.77,0-1.47,0.19-2.08,0.56c-0.61,0.38-1.09,0.91-1.45,1.61c-0.35,0.7-0.53,1.52-0.53,2.46c0,0.93,0.18,1.74,0.53,2.44
			c0.35,0.7,0.84,1.23,1.45,1.61c0.61,0.38,1.3,0.56,2.08,0.56c0.97,0,1.8-0.23,2.47-0.7c0.67-0.46,1.16-1.09,1.46-1.87h1.61
			c-0.36,1.23-1.01,2.21-1.95,2.92c-0.94,0.71-2.14,1.07-3.58,1.07c-1.11,0-2.09-0.25-2.94-0.76c-0.85-0.51-1.52-1.22-1.99-2.14
			c-0.48-0.91-0.71-1.95-0.71-3.12c0-1.18,0.24-2.23,0.71-3.14c0.48-0.92,1.14-1.63,1.99-2.14c0.85-0.51,1.83-0.76,2.94-0.76
			C-1036.64,145.94-1035.45,146.3-1034.51,147.01z"/>
		<path d="M-1020.47,146.68c0.88,0.52,1.57,1.24,2.08,2.16s0.76,1.97,0.76,3.14c0,1.17-0.25,2.21-0.76,3.14
			c-0.5,0.93-1.2,1.65-2.08,2.16c-0.88,0.52-1.87,0.77-2.97,0.77c-1.1,0-2.09-0.26-2.98-0.77c-0.89-0.52-1.59-1.24-2.09-2.16
			c-0.5-0.92-0.76-1.97-0.76-3.14c0-1.17,0.25-2.21,0.76-3.14c0.51-0.93,1.2-1.65,2.09-2.16c0.89-0.51,1.89-0.77,2.98-0.77
			C-1022.34,145.91-1021.35,146.16-1020.47,146.68z M-1025.64,147.9c-0.64,0.38-1.15,0.91-1.51,1.61c-0.36,0.7-0.55,1.52-0.55,2.46
			c0,0.93,0.18,1.75,0.55,2.45c0.36,0.71,0.87,1.25,1.51,1.62s1.38,0.56,2.19,0.56c0.81,0,1.53-0.19,2.18-0.57s1.15-0.92,1.51-1.62
			c0.36-0.7,0.55-1.52,0.55-2.45c0-0.94-0.18-1.76-0.55-2.46c-0.36-0.7-0.87-1.24-1.51-1.61c-0.64-0.37-1.37-0.56-2.18-0.56
			C-1024.26,147.34-1024.99,147.52-1025.64,147.9z"/>
		<path d="M-1007.65,157.91l-3.09-4.84h-1.66v4.84h-1.53v-11.85h3.9c1.34,0,2.35,0.32,3.03,0.97c0.67,0.65,1.01,1.5,1.01,2.56
			c0,0.96-0.27,1.74-0.81,2.33c-0.54,0.59-1.32,0.96-2.34,1.1l3.23,4.89H-1007.65z M-1012.41,151.96h2.24
			c1.74,0,2.61-0.76,2.61-2.29s-0.87-2.29-2.61-2.29h-2.24V151.96z"/>
		<path d="M-1000.98,147.3v4.05h4.51v1.18h-4.51v4.14h5.01v1.24h-6.54v-11.85h6.54v1.24H-1000.98z"/>
	</g>
	<g>
		<path d="M-1148.43,21.76c0,12.68-7.36,18.98-18.65,18.98h-8.34v9.49c0,5.4,0,5.4,7.28,6.14v3.11h-22.34v-3.11
			c6.3-0.74,6.3-0.74,6.3-6.14V15.71c0-5.4,0-5.4-6.3-6.14V6.46h20.62C-1154.48,6.46-1148.43,10.55-1148.43,21.76z M-1157.92,22.83
			c0-8.26-3.85-12.76-12.52-12.76h-4.99v27.08h7.04C-1161.68,37.14-1157.92,31.91-1157.92,22.83z"/>
		<g>
			<path d="M-1130.32,21.45l-0.33,28.86c0,5.65,0,5.65,5.07,6.38v2.78h-18.33V56.7c5.07-0.74,5.07-0.74,5.07-6.38V34.61
				c0-6.3,0-6.58-4.99-7.89v-2.54L-1130.32,21.45z"/>
			<path d="M-1139.89,9.73c0-2.78,2.13-4.99,4.99-4.99c2.62,0,4.75,2.21,4.75,4.99c0,2.54-2.13,4.75-4.75,4.75
				C-1137.76,14.47-1139.89,12.26-1139.89,9.73z"/>
		</g>
		<path d="M-1107.47,1.64l-0.41,48.68c0,5.65,0,5.65,5.15,6.38v2.78h-18.33V56.7c4.99-0.74,4.99-0.74,4.99-6.38V14.04
			c0-6.3,0-7.28-4.99-8.59V3.93L-1107.47,1.64z"/>
		<path d="M-1062.78,55.96c-1.15,1.47-4.09,3.52-7.69,3.52c-3.44,0-6.05-1.72-6.63-6.71c-2.37,3.76-6.3,6.71-11.05,6.71
			c-6.22,0-10.06-3.68-10.06-8.75c0-8.18,7.12-10.15,15.95-13.25l5.24-1.88v-2.45c0.08-5.73-1.64-8.92-6.05-8.92
			c-2.56,0-4.57,1.4-5.13,5.18c-0.41,2.79-3.31,4.65-5.85,3.45c-1.18-0.56-2.03-1.63-2.03-3.56c0-4.25,5.32-8.51,13.91-8.51
			c10.72,0,13.42,4.09,13.42,12.6l-0.16,15.38c-0.08,4.42,1.15,5.56,2.78,5.56c0.9,0,1.64-0.49,2.13-0.82L-1062.78,55.96z
			 M-1077.18,49.91l0.08-10.72l-2.37,0.9c-5.89,2.21-9.9,3.44-10.15,8.18c-0.08,2.7,1.31,5.32,5.24,5.32
			C-1081.18,53.59-1078.81,51.95-1077.18,49.91z"/>
		<path d="M-1049.17,20.7l10.15-0.08v3.03h-10.15c-0.08,2.45-0.08,7.27-0.08,10.55v11.78c0,6.05,1.39,8.43,4.99,8.43
			c2.29,0,3.27-0.74,4.66-1.55l1.39,2.37c-2.13,2.05-5.65,4.25-10.39,4.25c-6.95,0-8.84-3.68-8.84-11.21V23.65h-4.5v-2.13
			c4.91-1.23,10.38-4.34,11.37-9.65h1.4V20.7z"/>
		<path d="M-1005.69,49.5c-1.47,3.85-5.56,9.98-14.24,9.98c-9.57,0-16.2-5.97-16.2-18.25c0-14.15,8.34-20.45,16.53-20.45
			c9.16,0,13.42,5.65,13.42,15.38l-0.9,0.9h-21.35v0.9c0,9.57,4.17,15.05,11.54,15.05c4.99,0,8.45-2.65,9.92-4.54L-1005.69,49.5z
			 M-1028.11,33.63h14.32c-0.25-5.56-2.37-9.41-6.46-9.41C-1024.43,24.22-1027.21,27.9-1028.11,33.63z"/>
		<path d="M-1000.68,47.62h1.48c1.31,4.83,5.23,8.35,10.8,8.35c3.68,0,5.89-2.05,5.89-5.15c0-9.08-18.65-5.48-18.65-18.82
			c-0.08-6.95,5.24-11.21,13.91-11.21c5.4,0,8.92,1.23,9.82,1.72v9.65h-1.64c-0.33-3.19-2.78-7.85-9.16-7.94
			c-3.35,0-5.32,1.96-5.32,5.07c0,9.08,18.74,6.38,18.74,18.41c0,7.2-5.4,11.78-13.66,11.78c-6.79,0-10.64-1.39-12.19-2.13V47.62z"
			/>
	</g>
	<path d="M-974.83,120.64c-1.47,3.85-5.56,9.98-14.24,9.98c-9.57,0-16.2-5.97-16.2-18.25c0-14.15,8.34-20.45,16.53-20.45
		c9.16,0,13.42,5.65,13.42,15.38l-0.9,0.9h-21.35v0.9c0,9.57,4.17,15.05,11.54,15.05c4.99,0,8.45-2.65,9.92-4.54L-974.83,120.64z
		 M-997.24,104.77h14.32c-0.25-5.56-2.37-9.41-6.46-9.41C-993.56,95.36-996.34,99.04-997.24,104.77z"/>
	<g>
		<path d="M-1034.75,99.7c2.37-2.7,7.03-6.71,12.51-6.71c7.28,0,10.31,3.93,10.31,12.02v16.44c0,5.64,0,5.64,5.07,6.38v2.78h-17.91
			v-2.78c4.66-0.57,4.66-0.57,4.66-6.22v-12.52c0-6.71-2.13-10.14-6.79-10.14c-2.45,0-5.07,1.23-7.85,3.44v19.06
			c0,5.64,0,5.64,4.58,6.38v2.78h-17.75v-2.78c4.99-0.74,4.99-0.74,4.99-6.38V86.21c0-6.3,0-6.3-4.99-7.61v-2.54l13.58-2.29
			L-1034.75,99.7z"/>
	</g>
	<path class="st0" d="M-1079.27,85.45c-0.12-4.74,3.84-8.6,8.59-8.59c6.99,0.02,12.23,3.14,13.69,10.8h1.93
		c0.16-3.35,0.08-9.16-0.08-11.45c-1.64-1.06-7.53-3.03-15.62-3.03c-11.21,0-17.01,6.38-17.01,14.56c0,4.4,1.62,7.49,4.06,9.86
		c-9.94-4.13-26.07-12.17-37.46-24.5c-0.25-0.27-0.63-0.38-0.99-0.29c-0.36,0.09-0.64,0.37-0.73,0.73
		c-0.04,0.15-2.94,12.69,10.24,23.07c-1.81-0.25-3.43-0.11-4.46,0.77c-1.26,1.08-1.45,2.94-0.55,5.57c0.09,0.25,1.74,4.38,7.93,7.39
		c-0.25,0.15-0.48,0.34-0.67,0.57c-0.45,0.57-0.82,1.59-0.04,3.25c0.03,0.07,0.07,0.13,0.12,0.19c0.06,0.08,5.25,6.61,14.53,6.61
		c1.2,0,2.48-0.11,3.81-0.36c0.36,3.88,4.26,6.52,4.26,6.52c1.64,1.14,6.63,4.15,16.35,3.37c11.82-0.95,19.57-8.97,19.57-17.31
		C-1051.79,95.62-1078.95,98.83-1079.27,85.45z M-1071.68,127.26c0,0-16.84,0.96-16.53-8.53c0.08-2.47-0.35-2.95-1.43-2.87
		c-1.07,0.08-1.72,1.2-2.05,2.21c-0.05,0.15-0.07,0.29-0.11,0.43c-10.26,2.19-16.13-4.41-16.86-5.29c-0.22-0.5-0.28-0.89-0.16-1.05
		c0.32-0.4,1.72-0.48,3.01-0.31c2.03,0.61,4.38,1.1,7.12,1.36c0.03,0,0.07,0,0.1,0c0.51,0,0.95-0.39,1-0.91
		c0.05-0.55-0.35-1.04-0.9-1.1c-2.22-0.21-4.16-0.58-5.86-1.04c-0.11-0.08-0.24-0.15-0.39-0.18c-0.12-0.03-0.33-0.06-0.59-0.1
		c-8.38-2.6-10.42-7.58-10.44-7.61c-0.34-0.98-0.79-2.72-0.04-3.36c1.37-1.17,6.02,0.26,9.89,2c0.76,0.39,1.55,0.78,2.37,1.16
		c0.5,0.23,1.08,0.02,1.32-0.47c0.24-0.49,0.05-1.08-0.43-1.33c-0.45-0.24-1.34-0.7-2.49-1.22c-15.26-7.98-16.33-18.69-16.06-23.06
		c17.95,18.28,45.6,26.79,45.88,26.88c0.06,0.02,0.13,0.01,0.19,0.02c7.22,3.22,14.84,5.52,14.84,12.67
		C-1060.3,121.2-1065.71,127.26-1071.68,127.26z"/>
	<g>
		<path d="M-1196.53,132.24c2.58,0.08,3.51-0.39,5.29-6.51c2.87-10.35,5.06-20.51,7.29-29.63h-5.17v-2.47h5.81l0.45-1.69
			c1.86-7.1,5.47-15.04,13.55-15.04c3.74,0,6.15,3.46,5.43,6.06c-0.32,1.17-1.28,2.11-2.71,2.64c-0.79,0.29-1.64-0.34-1.59-1.18
			c0.16-2.5-0.85-5.05-2.61-5.05c-3.91,0-5.9,5.01-8.06,12.76l-0.42,1.5h6.77v2.47h-6.5c-2.09,8.2-3.16,15.95-5.68,24.87
			c-2.67,9.29-5.33,12.44-8.02,13.85c-1.74,0.92-3.75,1.2-5.71,0.97c-1.78-0.21-3.75-0.85-4.11-2.63c-0.75-3.72,3.26-4.28,3.95-2.73
			C-1198.6,130.44-1197.49,132.21-1196.53,132.24z"/>
		<path d="M-1174.44,111.63c1.39-10.16,7.21-18.88,16.2-18.88c6.58,0,9.41,3.52,8.3,11.65c-1.39,10.16-7.27,18.82-16.19,18.82
			C-1172.71,123.22-1175.55,119.7-1174.44,111.63z M-1155.34,108.11c2.13-7.94,0.4-12.89-3.89-12.89c-4.17,0-7.63,4.82-9.7,12.31
			c-2.33,8.46-0.51,13.22,3.78,13.22C-1160.98,120.75-1157.45,115.93-1155.34,108.11z"/>
		<path d="M-1148.18,122.92l0.61-2.6l4.26-17.58c1.28-5.21,1.28-5.21-2.9-6.25l0.33-1.69c2.28-0.52,7.67-1.5,9.16-1.5l-1.85,6.19
			c-1.02,3.58-2.41,7.03-3.36,9.57h0.15c4.46-10.61,8.76-16.02,12.4-16.02c1.82,0,2.66,1.17,2.49,2.6c-0.1,0.85-0.63,2.02-1.6,3.06
			c-0.4-0.46-1.53-0.78-2.25-0.78c-2.28,0-2.97,1.82-5.52,6.25c-2.23,3.91-5.85,10.42-8.61,18.75L-1148.18,122.92z"/>
	</g>
</g>
<g>
	<polygon points="-930.14,157.91 -923.6,157.91 -923.6,156.67 -928.61,156.67 -928.61,152.53 -924.1,152.53 -924.1,151.35 
		-928.61,151.35 -928.61,147.3 -923.6,147.3 -923.6,146.06 -930.14,146.06 	"/>
	<polygon points="-914.03,153.91 -918.17,146.26 -920,146.26 -920,157.91 -918.47,157.91 -918.47,148.65 -914.74,155.78 
		-913.38,155.78 -909.66,148.61 -909.66,157.91 -908.13,157.91 -908.13,146.26 -909.96,146.26 	"/>
	<path d="M-900.28,146.06h-3.77v11.85h1.53v-4.78h2.24c1.31,0,2.31-0.31,3.01-0.93c0.7-0.62,1.04-1.49,1.04-2.6
		c0-1.1-0.34-1.96-1.01-2.6C-897.91,146.37-898.92,146.06-900.28,146.06z M-898.4,151.27c-0.41,0.39-1.08,0.59-2.01,0.59h-2.1v-4.52
		h2.1c0.93,0,1.6,0.19,2.01,0.58c0.41,0.39,0.61,0.95,0.61,1.69C-897.79,150.32-897.99,150.88-898.4,151.27z"/>
	<path d="M-884.41,146.68c-0.88-0.51-1.87-0.77-2.97-0.77c-1.1,0-2.09,0.26-2.99,0.77c-0.89,0.52-1.59,1.24-2.09,2.16
		c-0.5,0.93-0.76,1.97-0.76,3.14c0,1.17,0.25,2.21,0.76,3.14c0.5,0.93,1.2,1.65,2.09,2.16c0.89,0.52,1.89,0.77,2.99,0.77
		c1.1,0,2.09-0.26,2.97-0.77c0.88-0.52,1.57-1.24,2.08-2.16c0.5-0.92,0.76-1.97,0.76-3.14c0-1.17-0.25-2.21-0.76-3.14
		C-882.84,147.92-883.53,147.2-884.41,146.68z M-883.69,154.42c-0.36,0.7-0.87,1.24-1.51,1.62c-0.64,0.38-1.37,0.57-2.18,0.57
		c-0.82,0-1.55-0.19-2.19-0.56c-0.64-0.38-1.15-0.92-1.51-1.62c-0.36-0.71-0.55-1.52-0.55-2.45c0-0.94,0.18-1.76,0.55-2.46
		c0.36-0.7,0.87-1.24,1.51-1.61c0.64-0.37,1.38-0.56,2.19-0.56c0.81,0,1.53,0.19,2.18,0.56c0.64,0.38,1.15,0.91,1.51,1.61
		c0.36,0.7,0.55,1.52,0.55,2.46C-883.14,152.91-883.33,153.72-883.69,154.42z"/>
	<polygon points="-867.27,156.1 -870.08,146.06 -871.78,146.06 -874.59,156.13 -876.86,146.06 -878.55,146.06 -875.53,157.91 
		-873.66,157.91 -870.92,148.23 -868.18,157.91 -866.31,157.91 -863.3,146.06 -864.99,146.06 	"/>
	<polygon points="-859.87,157.91 -853.33,157.91 -853.33,156.67 -858.34,156.67 -858.34,152.53 -853.84,152.53 -853.84,151.35 
		-858.34,151.35 -858.34,147.3 -853.33,147.3 -853.33,146.06 -859.87,146.06 	"/>
	<path d="M-842.61,151.92c0.54-0.59,0.81-1.37,0.81-2.33c0-1.06-0.34-1.92-1.01-2.56c-0.67-0.64-1.68-0.97-3.03-0.97h-3.9v11.85
		h1.53v-4.84h1.66l3.09,4.84h1.73l-3.23-4.89C-843.92,152.87-843.14,152.51-842.61,151.92z M-848.2,151.96v-4.57h2.24
		c1.74,0,2.61,0.76,2.61,2.29s-0.87,2.29-2.61,2.29H-848.2z"/>
	<polygon points="-824.97,151.19 -830.99,151.19 -830.99,146.06 -832.52,146.06 -832.52,157.91 -830.99,157.91 -830.99,152.43 
		-824.97,152.43 -824.97,157.91 -823.42,157.91 -823.42,146.06 -824.97,146.06 	"/>
	<polygon points="-819.33,157.91 -812.79,157.91 -812.79,156.67 -817.8,156.67 -817.8,152.53 -813.3,152.53 -813.3,151.35 
		-817.8,151.35 -817.8,147.3 -812.79,147.3 -812.79,146.06 -819.33,146.06 	"/>
	<path d="M-802.07,151.92c0.54-0.59,0.81-1.37,0.81-2.33c0-1.06-0.34-1.92-1.01-2.56c-0.67-0.64-1.68-0.97-3.03-0.97h-3.9v11.85
		h1.53v-4.84h1.66l3.09,4.84h1.73l-3.23-4.89C-803.38,152.87-802.6,152.51-802.07,151.92z M-807.66,151.96v-4.57h2.24
		c1.74,0,2.61,0.76,2.61,2.29s-0.87,2.29-2.61,2.29H-807.66z"/>
	<path d="M-788.82,147.92c0.61-0.38,1.3-0.56,2.08-0.56c0.97,0,1.8,0.23,2.47,0.7s1.16,1.09,1.46,1.87h1.61
		c-0.36-1.23-1.01-2.21-1.95-2.92c-0.94-0.71-2.14-1.07-3.58-1.07c-1.11,0-2.09,0.25-2.94,0.76c-0.85,0.51-1.52,1.23-1.99,2.14
		c-0.48,0.92-0.71,1.97-0.71,3.14c0,1.17,0.24,2.21,0.71,3.12c0.48,0.91,1.14,1.63,1.99,2.14c0.85,0.51,1.83,0.76,2.94,0.76
		c1.45,0,2.64-0.36,3.58-1.07c0.94-0.71,1.59-1.68,1.95-2.92h-1.61c-0.3,0.78-0.79,1.41-1.46,1.87c-0.67,0.47-1.5,0.7-2.47,0.7
		c-0.77,0-1.47-0.19-2.08-0.56c-0.61-0.38-1.09-0.91-1.45-1.61c-0.35-0.69-0.53-1.51-0.53-2.44c0-0.94,0.18-1.76,0.53-2.46
		C-789.92,148.83-789.43,148.29-788.82,147.92z"/>
	<path d="M-769.12,146.68c-0.88-0.51-1.87-0.77-2.97-0.77c-1.1,0-2.09,0.26-2.98,0.77c-0.89,0.52-1.59,1.24-2.09,2.16
		c-0.5,0.93-0.76,1.97-0.76,3.14c0,1.17,0.25,2.21,0.76,3.14c0.51,0.93,1.2,1.65,2.09,2.16c0.89,0.52,1.89,0.77,2.98,0.77
		c1.1,0,2.09-0.26,2.97-0.77c0.88-0.52,1.57-1.24,2.08-2.16c0.5-0.92,0.76-1.97,0.76-3.14c0-1.17-0.25-2.21-0.76-3.14
		S-768.24,147.2-769.12,146.68z M-768.39,154.42c-0.36,0.7-0.87,1.24-1.51,1.62c-0.64,0.38-1.37,0.57-2.18,0.57
		c-0.82,0-1.55-0.19-2.19-0.56s-1.15-0.92-1.51-1.62c-0.36-0.71-0.55-1.52-0.55-2.45c0-0.94,0.18-1.76,0.55-2.46
		c0.36-0.7,0.87-1.24,1.51-1.61c0.64-0.37,1.38-0.56,2.19-0.56c0.81,0,1.53,0.19,2.18,0.56c0.64,0.38,1.15,0.91,1.51,1.61
		c0.36,0.7,0.55,1.52,0.55,2.46C-767.85,152.91-768.03,153.72-768.39,154.42z"/>
	<path d="M-755.45,151.92c0.54-0.59,0.81-1.37,0.81-2.33c0-1.06-0.34-1.92-1.01-2.56c-0.67-0.64-1.68-0.97-3.03-0.97h-3.9v11.85
		h1.53v-4.84h1.66l3.09,4.84h1.73l-3.23-4.89C-756.77,152.87-755.99,152.51-755.45,151.92z M-761.05,151.96v-4.57h2.24
		c1.74,0,2.61,0.76,2.61,2.29s-0.87,2.29-2.61,2.29H-761.05z"/>
	<polygon points="-751.15,157.91 -744.61,157.91 -744.61,156.67 -749.62,156.67 -749.62,152.53 -745.11,152.53 -745.11,151.35 
		-749.62,151.35 -749.62,147.3 -744.61,147.3 -744.61,146.06 -751.15,146.06 	"/>
	<path d="M-916.79,56.37c-7.28-0.74-7.28-0.74-7.28-6.14v-9.49h8.34c11.29,0,18.65-6.3,18.65-18.98c0-11.21-6.05-15.3-21.44-15.3
		h-20.62v3.11c6.3,0.74,6.3,0.74,6.3,6.14v34.53c0,5.4,0,5.4-6.3,6.14v3.11h22.34V56.37z M-924.07,10.06h4.99
		c8.67,0,12.52,4.5,12.52,12.76c0,9.08-3.76,14.32-10.47,14.32h-7.04V10.06z"/>
	<path d="M-874.22,56.7c-5.07-0.74-5.07-0.74-5.07-6.38l0.33-28.86l-13.5,2.72v2.54c4.99,1.31,4.99,1.59,4.99,7.89v15.71
		c0,5.65,0,5.65-5.07,6.38v2.78h18.33V56.7z"/>
	<path d="M-883.54,14.47c2.62,0,4.75-2.21,4.75-4.75c0-2.78-2.13-4.99-4.75-4.99c-2.86,0-4.99,2.21-4.99,4.99
		C-888.53,12.26-886.41,14.47-883.54,14.47z"/>
	<path d="M-851.37,56.7c-5.15-0.74-5.15-0.74-5.15-6.38l0.41-48.68l-13.58,2.29v1.52c4.99,1.31,4.99,2.29,4.99,8.59v36.28
		c0,5.65,0,5.65-4.99,6.38v2.78h18.33V56.7z"/>
	<path d="M-830.89,37.47c-8.84,3.11-15.95,5.07-15.95,13.25c0,5.07,3.85,8.75,10.06,8.75c4.75,0,8.67-2.95,11.05-6.71
		c0.57,4.99,3.19,6.71,6.63,6.71c3.6,0,6.55-2.05,7.69-3.52l-1.23-2.45c-0.49,0.33-1.23,0.82-2.13,0.82c-1.64,0-2.86-1.15-2.78-5.56
		l0.16-15.38c0-8.51-2.7-12.6-13.42-12.6c-8.59,0-13.91,4.25-13.91,8.51c0,1.93,0.85,3,2.03,3.56c2.55,1.21,5.44-0.66,5.85-3.45
		c0.56-3.78,2.57-5.18,5.13-5.18c4.42,0,6.14,3.19,6.05,8.92v2.45L-830.89,37.47z M-825.82,49.91c-1.64,2.05-4.01,3.68-7.2,3.68
		c-3.93,0-5.32-2.62-5.24-5.32c0.25-4.75,4.25-5.97,10.15-8.18l2.37-0.9L-825.82,49.91z"/>
	<path d="M-788.24,52.85c-1.39,0.82-2.37,1.55-4.66,1.55c-3.6,0-4.99-2.37-4.99-8.43V34.2c0-3.27,0-8.09,0.08-10.55h10.15v-3.03
		l-10.15,0.08v-8.84h-1.4c-0.98,5.32-6.46,8.43-11.37,9.65v2.13h4.5v24.62c0,7.53,1.88,11.21,8.84,11.21
		c4.75,0,8.26-2.21,10.39-4.25L-788.24,52.85z"/>
	<path d="M-765.55,53.01c-7.36,0-11.54-5.48-11.54-15.05v-0.9h21.35l0.9-0.9c0-9.74-4.26-15.38-13.42-15.38
		c-8.18,0-16.53,6.3-16.53,20.45c0,12.27,6.63,18.25,16.2,18.25c8.67,0,12.76-6.14,14.24-9.98l-1.29-1.02
		C-757.1,50.36-760.56,53.01-765.55,53.01z M-768.9,24.22c4.09,0,6.22,3.85,6.46,9.41h-14.32C-775.86,27.9-773.07,24.22-768.9,24.22
		z"/>
	<path d="M-731.16,50.81c0,3.11-2.21,5.15-5.89,5.15c-5.56,0-9.49-3.52-10.8-8.35h-1.48v9.74c1.55,0.74,5.4,2.13,12.19,2.13
		c8.26,0,13.66-4.58,13.66-11.78c0-12.03-18.74-9.33-18.74-18.41c0-3.11,1.96-5.07,5.32-5.07c6.38,0.08,8.83,4.75,9.16,7.94h1.64
		V22.5c-0.9-0.49-4.42-1.72-9.82-1.72c-8.67,0-13.99,4.25-13.91,11.21C-749.81,45.32-731.16,41.72-731.16,50.81z"/>
	<path d="M-734.68,124.16c-7.36,0-11.54-5.48-11.54-15.05v-0.9h21.35l0.9-0.9c0-9.74-4.26-15.38-13.42-15.38
		c-8.18,0-16.53,6.3-16.53,20.45c0,12.27,6.63,18.25,16.2,18.25c8.67,0,12.76-6.14,14.24-9.98l-1.29-1.02
		C-726.23,121.51-729.69,124.16-734.68,124.16z M-738.03,95.36c4.09,0,6.22,3.85,6.46,9.41h-14.32
		C-744.99,99.04-742.21,95.36-738.03,95.36z"/>
	<path d="M-783.39,121.46V102.4c2.78-2.21,5.4-3.44,7.85-3.44c4.66,0,6.79,3.44,6.79,10.14v12.52c0,5.64,0,5.64-4.66,6.22v2.78
		h17.91v-2.78c-5.07-0.74-5.07-0.74-5.07-6.38v-16.44c0-8.1-3.03-12.02-10.31-12.02c-5.48,0-10.14,4.01-12.51,6.71l0.41-25.93
		l-13.58,2.29v2.54c4.99,1.31,4.99,1.31,4.99,7.61v35.25c0,5.64,0,5.64-4.99,6.38v2.78h17.75v-2.78
		C-783.39,127.11-783.39,127.11-783.39,121.46z"/>
	<path d="M-827.92,85.45c-0.12-4.74,3.84-8.6,8.59-8.59c6.99,0.02,12.23,3.14,13.69,10.8h1.93c0.16-3.35,0.08-9.16-0.08-11.45
		c-1.64-1.06-7.53-3.03-15.62-3.03c-11.21,0-17.01,6.38-17.01,14.56c0,4.4,1.62,7.49,4.06,9.86c-9.94-4.13-26.07-12.17-37.46-24.5
		c-0.25-0.27-0.63-0.38-0.99-0.29c-0.36,0.09-0.64,0.37-0.73,0.73c-0.04,0.15-2.94,12.69,10.24,23.07
		c-1.81-0.25-3.43-0.11-4.46,0.77c-1.26,1.08-1.45,2.94-0.55,5.57c0.09,0.25,1.74,4.38,7.93,7.39c-0.25,0.15-0.48,0.34-0.67,0.57
		c-0.45,0.57-0.82,1.59-0.04,3.25c0.03,0.07,0.07,0.13,0.12,0.19c0.06,0.08,5.25,6.61,14.53,6.61c1.2,0,2.48-0.11,3.81-0.36
		c0.36,3.88,4.26,6.52,4.26,6.52c1.64,1.14,6.63,4.15,16.35,3.37c11.82-0.95,19.57-8.97,19.57-17.31
		C-800.44,95.62-827.59,98.83-827.92,85.45z M-820.33,127.26c0,0-16.84,0.96-16.53-8.53c0.08-2.47-0.35-2.95-1.43-2.87
		c-1.07,0.08-1.72,1.2-2.05,2.21c-0.05,0.15-0.07,0.29-0.11,0.43c-10.26,2.19-16.13-4.41-16.86-5.29c-0.22-0.5-0.28-0.89-0.16-1.05
		c0.32-0.4,1.72-0.48,3.01-0.31c2.03,0.61,4.38,1.1,7.12,1.36c0.03,0,0.07,0,0.1,0c0.51,0,0.95-0.39,1-0.91
		c0.05-0.55-0.35-1.04-0.9-1.1c-2.22-0.21-4.16-0.58-5.86-1.04c-0.11-0.08-0.24-0.15-0.39-0.18c-0.12-0.03-0.33-0.06-0.59-0.1
		c-8.38-2.6-10.42-7.58-10.44-7.61c-0.34-0.98-0.79-2.72-0.04-3.36c1.37-1.17,6.02,0.26,9.89,2c0.76,0.39,1.55,0.78,2.37,1.16
		c0.5,0.23,1.08,0.02,1.32-0.47c0.24-0.49,0.05-1.08-0.43-1.33c-0.45-0.24-1.34-0.7-2.49-1.22c-15.26-7.98-16.33-18.69-16.06-23.06
		c17.95,18.28,45.6,26.79,45.88,26.88c0.06,0.02,0.13,0.01,0.19,0.02c7.22,3.22,14.84,5.52,14.84,12.67
		C-808.94,121.2-814.36,127.26-820.33,127.26z"/>
	<path d="M-921.15,96.1v-2.47h-6.77l0.42-1.5c2.15-7.75,4.15-12.76,8.06-12.76c1.76,0,2.77,2.55,2.61,5.05
		c-0.05,0.84,0.8,1.47,1.59,1.18c1.43-0.53,2.39-1.47,2.71-2.64c0.72-2.6-1.68-6.06-5.43-6.06c-8.07,0-11.69,7.94-13.55,15.04
		l-0.45,1.69h-5.81v2.47h5.17c-2.23,9.12-4.42,19.27-7.29,29.62c-1.77,6.12-2.7,6.59-5.29,6.51c-0.95-0.03-2.06-1.8-2.06-1.8
		c-0.69-1.55-4.7-0.99-3.95,2.73c0.36,1.78,2.33,2.42,4.11,2.63c1.96,0.23,3.97-0.05,5.71-0.97c2.69-1.41,5.35-4.56,8.02-13.85
		c2.53-8.92,3.59-16.67,5.68-24.87H-921.15z"/>
	<path d="M-906.89,92.75c-8.99,0-14.81,8.72-16.2,18.88c-1.11,8.07,1.73,11.59,8.31,11.59c8.92,0,14.8-8.66,16.19-18.82
		C-897.47,96.26-900.31,92.75-906.89,92.75z M-903.98,108.11c-2.11,7.81-5.64,12.63-9.81,12.63c-4.3,0-6.12-4.75-3.78-13.22
		c2.07-7.49,5.53-12.31,9.7-12.31C-903.58,95.22-901.85,100.17-903.98,108.11z"/>
	<path d="M-875.53,95.65c0.17-1.43-0.66-2.6-2.49-2.6c-3.65,0-7.94,5.4-12.4,16.02h-0.15c0.96-2.54,2.35-5.99,3.36-9.57l1.85-6.19
		c-1.5,0-6.89,0.98-9.16,1.5l-0.33,1.69c4.17,1.04,4.17,1.04,2.9,6.25l-4.26,17.58l-0.61,2.6l3.31,0
		c2.76-8.33,6.38-14.85,8.61-18.75c2.55-4.43,3.24-6.25,5.52-6.25c0.72,0,1.85,0.33,2.25,0.78
		C-876.16,97.66-875.63,96.49-875.53,95.65z"/>
</g>
<g>
	<polygon class="st0" points="-678.79,157.91 -672.24,157.91 -672.24,156.67 -677.26,156.67 -677.26,152.53 -672.75,152.53 
		-672.75,151.35 -677.26,151.35 -677.26,147.3 -672.24,147.3 -672.24,146.06 -678.79,146.06 	"/>
	<polygon class="st0" points="-662.68,153.91 -666.81,146.26 -668.65,146.26 -668.65,157.91 -667.12,157.91 -667.12,148.65 
		-663.38,155.78 -662.02,155.78 -658.3,148.61 -658.3,157.91 -656.77,157.91 -656.77,146.26 -658.61,146.26 	"/>
	<path class="st0" d="M-648.92,146.06h-3.77v11.85h1.53v-4.78h2.24c1.31,0,2.31-0.31,3.01-0.93c0.7-0.62,1.04-1.49,1.04-2.6
		c0-1.1-0.34-1.96-1.01-2.6C-646.55,146.37-647.57,146.06-648.92,146.06z M-647.05,151.27c-0.41,0.39-1.08,0.59-2.01,0.59h-2.1
		v-4.52h2.1c0.93,0,1.6,0.19,2.01,0.58s0.61,0.95,0.61,1.69C-646.43,150.32-646.64,150.88-647.05,151.27z"/>
	<path class="st0" d="M-633.06,146.68c-0.88-0.51-1.87-0.77-2.97-0.77c-1.1,0-2.09,0.26-2.99,0.77c-0.89,0.52-1.59,1.24-2.09,2.16
		c-0.5,0.93-0.76,1.97-0.76,3.14c0,1.17,0.25,2.21,0.76,3.14c0.5,0.93,1.2,1.65,2.09,2.16c0.89,0.52,1.89,0.77,2.99,0.77
		c1.1,0,2.09-0.26,2.97-0.77c0.88-0.52,1.57-1.24,2.08-2.16c0.5-0.92,0.76-1.97,0.76-3.14c0-1.17-0.25-2.21-0.76-3.14
		C-631.49,147.92-632.18,147.2-633.06,146.68z M-632.33,154.42c-0.36,0.7-0.87,1.24-1.51,1.62c-0.64,0.38-1.37,0.57-2.18,0.57
		c-0.82,0-1.55-0.19-2.19-0.56c-0.64-0.38-1.15-0.92-1.51-1.62c-0.36-0.71-0.55-1.52-0.55-2.45c0-0.94,0.18-1.76,0.55-2.46
		c0.36-0.7,0.87-1.24,1.51-1.61c0.64-0.37,1.38-0.56,2.19-0.56c0.81,0,1.53,0.19,2.18,0.56c0.64,0.38,1.15,0.91,1.51,1.61
		c0.36,0.7,0.55,1.52,0.55,2.46C-631.79,152.91-631.97,153.72-632.33,154.42z"/>
	<polygon class="st0" points="-615.92,156.1 -618.72,146.06 -620.42,146.06 -623.23,156.13 -625.5,146.06 -627.2,146.06 
		-624.17,157.91 -622.31,157.91 -619.56,148.23 -616.82,157.91 -614.96,157.91 -611.95,146.06 -613.63,146.06 	"/>
	<polygon class="st0" points="-608.52,157.91 -601.98,157.91 -601.98,156.67 -606.99,156.67 -606.99,152.53 -602.48,152.53 
		-602.48,151.35 -606.99,151.35 -606.99,147.3 -601.98,147.3 -601.98,146.06 -608.52,146.06 	"/>
	<path class="st0" d="M-591.25,151.92c0.54-0.59,0.81-1.37,0.81-2.33c0-1.06-0.34-1.92-1.01-2.56c-0.67-0.64-1.68-0.97-3.03-0.97
		h-3.9v11.85h1.53v-4.84h1.66l3.09,4.84h1.73l-3.23-4.89C-592.57,152.87-591.79,152.51-591.25,151.92z M-596.85,151.96v-4.57h2.24
		c1.74,0,2.61,0.76,2.61,2.29s-0.87,2.29-2.61,2.29H-596.85z"/>
	<polygon class="st0" points="-573.61,151.19 -579.63,151.19 -579.63,146.06 -581.16,146.06 -581.16,157.91 -579.63,157.91 
		-579.63,152.43 -573.61,152.43 -573.61,157.91 -572.06,157.91 -572.06,146.06 -573.61,146.06 	"/>
	<polygon class="st0" points="-567.98,157.91 -561.44,157.91 -561.44,156.67 -566.45,156.67 -566.45,152.53 -561.94,152.53 
		-561.94,151.35 -566.45,151.35 -566.45,147.3 -561.44,147.3 -561.44,146.06 -567.98,146.06 	"/>
	<path class="st0" d="M-550.71,151.92c0.54-0.59,0.81-1.37,0.81-2.33c0-1.06-0.34-1.92-1.01-2.56c-0.67-0.64-1.68-0.97-3.03-0.97
		h-3.9v11.85h1.53v-4.84h1.66l3.09,4.84h1.73l-3.23-4.89C-552.03,152.87-551.25,152.51-550.71,151.92z M-556.31,151.96v-4.57h2.24
		c1.74,0,2.61,0.76,2.61,2.29s-0.87,2.29-2.61,2.29H-556.31z"/>
	<path class="st0" d="M-537.47,147.92c0.61-0.38,1.3-0.56,2.08-0.56c0.97,0,1.8,0.23,2.47,0.7c0.67,0.47,1.16,1.09,1.46,1.87h1.61
		c-0.36-1.23-1.01-2.21-1.95-2.92c-0.94-0.71-2.14-1.07-3.58-1.07c-1.11,0-2.09,0.25-2.94,0.76c-0.85,0.51-1.52,1.23-1.99,2.14
		c-0.48,0.92-0.71,1.97-0.71,3.14c0,1.17,0.24,2.21,0.71,3.12c0.48,0.91,1.14,1.63,1.99,2.14c0.85,0.51,1.83,0.76,2.94,0.76
		c1.45,0,2.64-0.36,3.58-1.07c0.94-0.71,1.59-1.68,1.95-2.92h-1.61c-0.3,0.78-0.79,1.41-1.46,1.87c-0.67,0.47-1.5,0.7-2.47,0.7
		c-0.77,0-1.47-0.19-2.08-0.56c-0.61-0.38-1.09-0.91-1.45-1.61c-0.35-0.69-0.53-1.51-0.53-2.44c0-0.94,0.18-1.76,0.53-2.46
		C-538.56,148.83-538.08,148.29-537.47,147.92z"/>
	<path class="st0" d="M-517.76,146.68c-0.88-0.51-1.87-0.77-2.97-0.77c-1.1,0-2.09,0.26-2.98,0.77c-0.89,0.52-1.59,1.24-2.09,2.16
		c-0.5,0.93-0.76,1.97-0.76,3.14c0,1.17,0.25,2.21,0.76,3.14c0.51,0.93,1.2,1.65,2.09,2.16c0.89,0.52,1.89,0.77,2.98,0.77
		c1.1,0,2.09-0.26,2.97-0.77c0.88-0.52,1.57-1.24,2.08-2.16c0.5-0.92,0.76-1.97,0.76-3.14c0-1.17-0.25-2.21-0.76-3.14
		C-516.19,147.92-516.88,147.2-517.76,146.68z M-517.04,154.42c-0.36,0.7-0.87,1.24-1.51,1.62c-0.64,0.38-1.37,0.57-2.18,0.57
		c-0.82,0-1.55-0.19-2.19-0.56s-1.15-0.92-1.51-1.62c-0.36-0.71-0.55-1.52-0.55-2.45c0-0.94,0.18-1.76,0.55-2.46
		c0.36-0.7,0.87-1.24,1.51-1.61c0.64-0.37,1.38-0.56,2.19-0.56c0.81,0,1.53,0.19,2.18,0.56c0.64,0.38,1.15,0.91,1.51,1.61
		c0.36,0.7,0.55,1.52,0.55,2.46C-516.49,152.91-516.67,153.72-517.04,154.42z"/>
	<path class="st0" d="M-504.1,151.92c0.54-0.59,0.81-1.37,0.81-2.33c0-1.06-0.34-1.92-1.01-2.56c-0.67-0.64-1.68-0.97-3.03-0.97
		h-3.9v11.85h1.53v-4.84h1.66l3.09,4.84h1.73l-3.23-4.89C-505.42,152.87-504.64,152.51-504.1,151.92z M-509.7,151.96v-4.57h2.24
		c1.74,0,2.61,0.76,2.61,2.29s-0.87,2.29-2.61,2.29H-509.7z"/>
	<polygon class="st0" points="-499.79,157.91 -493.25,157.91 -493.25,156.67 -498.26,156.67 -498.26,152.53 -493.76,152.53 
		-493.76,151.35 -498.26,151.35 -498.26,147.3 -493.25,147.3 -493.25,146.06 -499.79,146.06 	"/>
	<path class="st0" d="M-665.43,56.37c-7.28-0.74-7.28-0.74-7.28-6.14v-9.49h8.34c11.29,0,18.65-6.3,18.65-18.98
		c0-11.21-6.05-15.3-21.44-15.3h-20.62v3.11c6.3,0.74,6.3,0.74,6.3,6.14v34.53c0,5.4,0,5.4-6.3,6.14v3.11h22.34V56.37z
		 M-672.71,10.06h4.99c8.67,0,12.52,4.5,12.52,12.76c0,9.08-3.76,14.32-10.47,14.32h-7.04V10.06z"/>
	<path class="st0" d="M-622.86,56.7c-5.07-0.74-5.07-0.74-5.07-6.38l0.33-28.86l-13.5,2.72v2.54c4.99,1.31,4.99,1.59,4.99,7.89
		v15.71c0,5.65,0,5.65-5.07,6.38v2.78h18.33V56.7z"/>
	<path class="st0" d="M-632.19,14.47c2.62,0,4.75-2.21,4.75-4.75c0-2.78-2.13-4.99-4.75-4.99c-2.86,0-4.99,2.21-4.99,4.99
		C-637.18,12.26-635.05,14.47-632.19,14.47z"/>
	<path class="st0" d="M-600.01,56.7c-5.15-0.74-5.15-0.74-5.15-6.38l0.41-48.68l-13.58,2.29v1.52c4.99,1.31,4.99,2.29,4.99,8.59
		v36.28c0,5.65,0,5.65-4.99,6.38v2.78h18.33V56.7z"/>
	<path class="st0" d="M-579.54,37.47c-8.84,3.11-15.95,5.07-15.95,13.25c0,5.07,3.85,8.75,10.06,8.75c4.75,0,8.67-2.95,11.05-6.71
		c0.57,4.99,3.19,6.71,6.63,6.71c3.6,0,6.55-2.05,7.69-3.52l-1.23-2.45c-0.49,0.33-1.23,0.82-2.13,0.82c-1.64,0-2.86-1.15-2.78-5.56
		l0.16-15.38c0-8.51-2.7-12.6-13.42-12.6c-8.59,0-13.91,4.25-13.91,8.51c0,1.93,0.85,3,2.03,3.56c2.55,1.21,5.44-0.66,5.85-3.45
		c0.56-3.78,2.57-5.18,5.13-5.18c4.42,0,6.14,3.19,6.05,8.92v2.45L-579.54,37.47z M-574.46,49.91c-1.64,2.05-4.01,3.68-7.2,3.68
		c-3.93,0-5.32-2.62-5.24-5.32c0.25-4.75,4.25-5.97,10.15-8.18l2.37-0.9L-574.46,49.91z"/>
	<path class="st0" d="M-536.88,52.85c-1.39,0.82-2.37,1.55-4.66,1.55c-3.6,0-4.99-2.37-4.99-8.43V34.2c0-3.27,0-8.09,0.08-10.55
		h10.15v-3.03l-10.15,0.08v-8.84h-1.4c-0.98,5.32-6.46,8.43-11.37,9.65v2.13h4.5v24.62c0,7.53,1.88,11.21,8.84,11.21
		c4.75,0,8.26-2.21,10.39-4.25L-536.88,52.85z"/>
	<path class="st0" d="M-514.19,53.01c-7.36,0-11.54-5.48-11.54-15.05v-0.9h21.35l0.9-0.9c0-9.74-4.26-15.38-13.42-15.38
		c-8.18,0-16.53,6.3-16.53,20.45c0,12.27,6.63,18.25,16.2,18.25c8.67,0,12.76-6.14,14.24-9.98l-1.29-1.02
		C-505.74,50.36-509.2,53.01-514.19,53.01z M-517.54,24.22c4.09,0,6.22,3.85,6.46,9.41h-14.32
		C-524.5,27.9-521.72,24.22-517.54,24.22z"/>
	<path class="st0" d="M-479.81,50.81c0,3.11-2.21,5.15-5.89,5.15c-5.56,0-9.49-3.52-10.8-8.35h-1.48v9.74
		c1.55,0.74,5.4,2.13,12.19,2.13c8.26,0,13.66-4.58,13.66-11.78c0-12.03-18.74-9.33-18.74-18.41c0-3.11,1.96-5.07,5.32-5.07
		c6.38,0.08,8.83,4.75,9.16,7.94h1.64V22.5c-0.9-0.49-4.42-1.72-9.82-1.72c-8.67,0-13.99,4.25-13.91,11.21
		C-498.46,45.32-479.81,41.72-479.81,50.81z"/>
	<path class="st0" d="M-483.32,124.16c-7.36,0-11.54-5.48-11.54-15.05v-0.9h21.35l0.9-0.9c0-9.74-4.26-15.38-13.42-15.38
		c-8.18,0-16.53,6.3-16.53,20.45c0,12.27,6.63,18.25,16.2,18.25c8.67,0,12.76-6.14,14.24-9.98l-1.29-1.02
		C-474.87,121.51-478.33,124.16-483.32,124.16z M-486.68,95.36c4.09,0,6.22,3.85,6.46,9.41h-14.32
		C-493.63,99.04-490.85,95.36-486.68,95.36z"/>
	<path class="st0" d="M-532.04,121.46V102.4c2.78-2.21,5.4-3.44,7.85-3.44c4.66,0,6.79,3.44,6.79,10.14v12.52
		c0,5.64,0,5.64-4.66,6.22v2.78h17.91v-2.78c-5.07-0.74-5.07-0.74-5.07-6.38v-16.44c0-8.1-3.03-12.02-10.31-12.02
		c-5.48,0-10.14,4.01-12.51,6.71l0.41-25.93l-13.58,2.29v2.54c4.99,1.31,4.99,1.31,4.99,7.61v35.25c0,5.64,0,5.64-4.99,6.38v2.78
		h17.75v-2.78C-532.04,127.11-532.04,127.11-532.04,121.46z"/>
	<path class="st0" d="M-576.56,85.45c-0.12-4.74,3.84-8.6,8.59-8.59c6.99,0.02,12.23,3.14,13.69,10.8h1.93
		c0.16-3.35,0.08-9.16-0.08-11.45c-1.64-1.06-7.53-3.03-15.62-3.03c-11.21,0-17.01,6.38-17.01,14.56c0,4.4,1.62,7.49,4.06,9.86
		c-9.94-4.13-26.07-12.17-37.46-24.5c-0.25-0.27-0.63-0.38-0.99-0.29c-0.36,0.09-0.64,0.37-0.73,0.73
		c-0.04,0.15-2.94,12.69,10.24,23.07c-1.81-0.25-3.43-0.11-4.46,0.77c-1.26,1.08-1.45,2.94-0.55,5.57c0.09,0.25,1.74,4.38,7.93,7.39
		c-0.25,0.15-0.48,0.34-0.67,0.57c-0.45,0.57-0.82,1.59-0.04,3.25c0.03,0.07,0.07,0.13,0.12,0.19c0.06,0.08,5.25,6.61,14.53,6.61
		c1.2,0,2.48-0.11,3.81-0.36c0.36,3.88,4.26,6.52,4.26,6.52c1.64,1.14,6.63,4.15,16.35,3.37c11.82-0.95,19.57-8.97,19.57-17.31
		C-549.08,95.62-576.24,98.83-576.56,85.45z M-568.97,127.26c0,0-16.84,0.96-16.53-8.53c0.08-2.47-0.35-2.95-1.43-2.87
		c-1.07,0.08-1.72,1.2-2.05,2.21c-0.05,0.15-0.07,0.29-0.11,0.43c-10.26,2.19-16.13-4.41-16.86-5.29c-0.22-0.5-0.28-0.89-0.16-1.05
		c0.32-0.4,1.72-0.48,3.01-0.31c2.03,0.61,4.38,1.1,7.12,1.36c0.03,0,0.07,0,0.1,0c0.51,0,0.95-0.39,1-0.91
		c0.05-0.55-0.35-1.04-0.9-1.1c-2.22-0.21-4.16-0.58-5.86-1.04c-0.11-0.08-0.24-0.15-0.39-0.18c-0.12-0.03-0.33-0.06-0.59-0.1
		c-8.38-2.6-10.42-7.58-10.44-7.61c-0.34-0.98-0.79-2.72-0.04-3.36c1.37-1.17,6.02,0.26,9.89,2c0.76,0.39,1.55,0.78,2.37,1.16
		c0.5,0.23,1.08,0.02,1.32-0.47c0.24-0.49,0.05-1.08-0.43-1.33c-0.45-0.24-1.34-0.7-2.49-1.22c-15.26-7.98-16.33-18.69-16.06-23.06
		c17.95,18.28,45.6,26.79,45.88,26.88c0.06,0.02,0.13,0.01,0.19,0.02c7.22,3.22,14.84,5.52,14.84,12.67
		C-557.59,121.2-563,127.26-568.97,127.26z"/>
	<path class="st0" d="M-669.8,96.1v-2.47h-6.77l0.42-1.5c2.15-7.75,4.15-12.76,8.06-12.76c1.76,0,2.77,2.55,2.61,5.05
		c-0.05,0.84,0.8,1.47,1.59,1.18c1.43-0.53,2.39-1.47,2.71-2.64c0.72-2.6-1.68-6.06-5.43-6.06c-8.07,0-11.69,7.94-13.55,15.04
		l-0.45,1.69h-5.81v2.47h5.17c-2.23,9.12-4.42,19.27-7.29,29.62c-1.77,6.12-2.7,6.59-5.29,6.51c-0.95-0.03-2.06-1.8-2.06-1.8
		c-0.69-1.55-4.7-0.99-3.95,2.73c0.36,1.78,2.33,2.42,4.11,2.63c1.96,0.23,3.97-0.05,5.71-0.97c2.69-1.41,5.35-4.56,8.02-13.85
		c2.53-8.92,3.59-16.67,5.68-24.87H-669.8z"/>
	<path class="st0" d="M-655.53,92.75c-8.99,0-14.81,8.72-16.2,18.88c-1.11,8.07,1.73,11.59,8.31,11.59c8.92,0,14.8-8.66,16.19-18.82
		C-646.12,96.26-648.95,92.75-655.53,92.75z M-652.63,108.11c-2.11,7.81-5.64,12.63-9.81,12.63c-4.3,0-6.12-4.75-3.78-13.22
		c2.07-7.49,5.53-12.31,9.7-12.31C-652.22,95.22-650.49,100.17-652.63,108.11z"/>
	<path class="st0" d="M-624.17,95.65c0.17-1.43-0.66-2.6-2.49-2.6c-3.65,0-7.94,5.4-12.4,16.02h-0.15c0.96-2.54,2.35-5.99,3.36-9.57
		l1.85-6.19c-1.5,0-6.89,0.98-9.16,1.5l-0.33,1.69c4.17,1.04,4.17,1.04,2.9,6.25l-4.26,17.58l-0.61,2.6l3.31,0
		c2.76-8.33,6.38-14.85,8.61-18.75c2.55-4.43,3.24-6.25,5.52-6.25c0.72,0,1.85,0.33,2.25,0.78
		C-624.8,97.66-624.27,96.49-624.17,95.65z"/>
</g>
<g>
	<polygon class="st1" points="-427.43,157.91 -420.89,157.91 -420.89,156.67 -425.9,156.67 -425.9,152.53 -421.39,152.53 
		-421.39,151.35 -425.9,151.35 -425.9,147.3 -420.89,147.3 -420.89,146.06 -427.43,146.06 	"/>
	<polygon class="st1" points="-411.32,153.91 -415.46,146.26 -417.29,146.26 -417.29,157.91 -415.76,157.91 -415.76,148.65 
		-412.03,155.78 -410.66,155.78 -406.95,148.61 -406.95,157.91 -405.42,157.91 -405.42,146.26 -407.25,146.26 	"/>
	<path class="st1" d="M-397.57,146.06h-3.77v11.85h1.53v-4.78h2.24c1.31,0,2.31-0.31,3.01-0.93c0.7-0.62,1.04-1.49,1.04-2.6
		c0-1.1-0.34-1.96-1.01-2.6C-395.2,146.37-396.21,146.06-397.57,146.06z M-395.69,151.27c-0.41,0.39-1.08,0.59-2.01,0.59h-2.1v-4.52
		h2.1c0.93,0,1.6,0.19,2.01,0.58c0.41,0.39,0.61,0.95,0.61,1.69C-395.08,150.32-395.28,150.88-395.69,151.27z"/>
	<path class="st1" d="M-381.7,146.68c-0.88-0.51-1.87-0.77-2.97-0.77c-1.1,0-2.09,0.26-2.99,0.77c-0.89,0.52-1.59,1.24-2.09,2.16
		c-0.5,0.93-0.76,1.97-0.76,3.14c0,1.17,0.25,2.21,0.76,3.14c0.5,0.93,1.2,1.65,2.09,2.16c0.89,0.52,1.89,0.77,2.99,0.77
		c1.1,0,2.09-0.26,2.97-0.77c0.88-0.52,1.57-1.24,2.08-2.16c0.5-0.92,0.76-1.97,0.76-3.14c0-1.17-0.25-2.21-0.76-3.14
		C-380.13,147.92-380.82,147.2-381.7,146.68z M-380.98,154.42c-0.36,0.7-0.87,1.24-1.51,1.62c-0.64,0.38-1.37,0.57-2.18,0.57
		c-0.82,0-1.55-0.19-2.19-0.56c-0.64-0.38-1.15-0.92-1.51-1.62c-0.36-0.71-0.55-1.52-0.55-2.45c0-0.94,0.18-1.76,0.55-2.46
		c0.36-0.7,0.87-1.24,1.51-1.61c0.64-0.37,1.38-0.56,2.19-0.56c0.81,0,1.53,0.19,2.18,0.56c0.64,0.38,1.15,0.91,1.51,1.61
		c0.36,0.7,0.55,1.52,0.55,2.46C-380.43,152.91-380.61,153.72-380.98,154.42z"/>
	<polygon class="st1" points="-364.56,156.1 -367.37,146.06 -369.07,146.06 -371.87,156.13 -374.14,146.06 -375.84,146.06 
		-372.82,157.91 -370.95,157.91 -368.21,148.23 -365.47,157.91 -363.6,157.91 -360.59,146.06 -362.27,146.06 	"/>
	<polygon class="st1" points="-357.16,157.91 -350.62,157.91 -350.62,156.67 -355.63,156.67 -355.63,152.53 -351.12,152.53 
		-351.12,151.35 -355.63,151.35 -355.63,147.3 -350.62,147.3 -350.62,146.06 -357.16,146.06 	"/>
	<path class="st1" d="M-339.89,151.92c0.54-0.59,0.81-1.37,0.81-2.33c0-1.06-0.34-1.92-1.01-2.56c-0.67-0.64-1.68-0.97-3.03-0.97
		h-3.9v11.85h1.53v-4.84h1.66l3.09,4.84h1.73l-3.23-4.89C-341.21,152.87-340.43,152.51-339.89,151.92z M-345.49,151.96v-4.57h2.24
		c1.74,0,2.61,0.76,2.61,2.29s-0.87,2.29-2.61,2.29H-345.49z"/>
	<polygon class="st1" points="-322.25,151.19 -328.27,151.19 -328.27,146.06 -329.8,146.06 -329.8,157.91 -328.27,157.91 
		-328.27,152.43 -322.25,152.43 -322.25,157.91 -320.71,157.91 -320.71,146.06 -322.25,146.06 	"/>
	<polygon class="st1" points="-316.62,157.91 -310.08,157.91 -310.08,156.67 -315.09,156.67 -315.09,152.53 -310.58,152.53 
		-310.58,151.35 -315.09,151.35 -315.09,147.3 -310.08,147.3 -310.08,146.06 -316.62,146.06 	"/>
	<path class="st1" d="M-299.35,151.92c0.54-0.59,0.81-1.37,0.81-2.33c0-1.06-0.34-1.92-1.01-2.56c-0.67-0.64-1.68-0.97-3.03-0.97
		h-3.9v11.85h1.53v-4.84h1.66l3.09,4.84h1.73l-3.23-4.89C-300.67,152.87-299.89,152.51-299.35,151.92z M-304.95,151.96v-4.57h2.24
		c1.74,0,2.61,0.76,2.61,2.29s-0.87,2.29-2.61,2.29H-304.95z"/>
	<path class="st1" d="M-286.11,147.92c0.61-0.38,1.3-0.56,2.08-0.56c0.97,0,1.8,0.23,2.47,0.7c0.67,0.47,1.16,1.09,1.46,1.87h1.61
		c-0.36-1.23-1.01-2.21-1.95-2.92c-0.94-0.71-2.14-1.07-3.58-1.07c-1.11,0-2.09,0.25-2.94,0.76c-0.85,0.51-1.52,1.23-1.99,2.14
		c-0.48,0.92-0.71,1.97-0.71,3.14c0,1.17,0.24,2.21,0.71,3.12c0.48,0.91,1.14,1.63,1.99,2.14c0.85,0.51,1.83,0.76,2.94,0.76
		c1.45,0,2.64-0.36,3.58-1.07c0.94-0.71,1.59-1.68,1.95-2.92h-1.61c-0.3,0.78-0.79,1.41-1.46,1.87c-0.67,0.47-1.5,0.7-2.47,0.7
		c-0.77,0-1.47-0.19-2.08-0.56c-0.61-0.38-1.09-0.91-1.45-1.61c-0.35-0.69-0.53-1.51-0.53-2.44c0-0.94,0.18-1.76,0.53-2.46
		C-287.2,148.83-286.72,148.29-286.11,147.92z"/>
	<path class="st1" d="M-266.4,146.68c-0.88-0.51-1.87-0.77-2.97-0.77c-1.1,0-2.09,0.26-2.98,0.77c-0.89,0.52-1.59,1.24-2.09,2.16
		c-0.5,0.93-0.76,1.97-0.76,3.14c0,1.17,0.25,2.21,0.76,3.14c0.51,0.93,1.2,1.65,2.09,2.16c0.89,0.52,1.89,0.77,2.98,0.77
		c1.1,0,2.09-0.26,2.97-0.77c0.88-0.52,1.57-1.24,2.08-2.16c0.5-0.92,0.76-1.97,0.76-3.14c0-1.17-0.25-2.21-0.76-3.14
		S-265.52,147.2-266.4,146.68z M-265.68,154.42c-0.36,0.7-0.87,1.24-1.51,1.62c-0.64,0.38-1.37,0.57-2.18,0.57
		c-0.82,0-1.55-0.19-2.19-0.56s-1.15-0.92-1.51-1.62c-0.36-0.71-0.55-1.52-0.55-2.45c0-0.94,0.18-1.76,0.55-2.46
		c0.36-0.7,0.87-1.24,1.51-1.61c0.64-0.37,1.38-0.56,2.19-0.56c0.81,0,1.53,0.19,2.18,0.56c0.64,0.38,1.15,0.91,1.51,1.61
		c0.36,0.7,0.55,1.52,0.55,2.46C-265.13,152.91-265.32,153.72-265.68,154.42z"/>
	<path class="st1" d="M-252.74,151.92c0.54-0.59,0.81-1.37,0.81-2.33c0-1.06-0.34-1.92-1.01-2.56c-0.67-0.64-1.68-0.97-3.03-0.97
		h-3.9v11.85h1.53v-4.84h1.66l3.09,4.84h1.73l-3.23-4.89C-254.06,152.87-253.28,152.51-252.74,151.92z M-258.34,151.96v-4.57h2.24
		c1.74,0,2.61,0.76,2.61,2.29s-0.87,2.29-2.61,2.29H-258.34z"/>
	<polygon class="st1" points="-248.44,157.91 -241.9,157.91 -241.9,156.67 -246.91,156.67 -246.91,152.53 -242.4,152.53 
		-242.4,151.35 -246.91,151.35 -246.91,147.3 -241.9,147.3 -241.9,146.06 -248.44,146.06 	"/>
	<path class="st1" d="M-414.08,56.37c-7.28-0.74-7.28-0.74-7.28-6.14v-9.49h8.34c11.29,0,18.65-6.3,18.65-18.98
		c0-11.21-6.05-15.3-21.44-15.3h-20.62v3.11c6.3,0.74,6.3,0.74,6.3,6.14v34.53c0,5.4,0,5.4-6.3,6.14v3.11h22.34V56.37z
		 M-421.36,10.06h4.99c8.67,0,12.52,4.5,12.52,12.76c0,9.08-3.76,14.32-10.47,14.32h-7.04V10.06z"/>
	<path class="st1" d="M-371.5,56.7c-5.07-0.74-5.07-0.74-5.07-6.38l0.33-28.86l-13.5,2.72v2.54c4.99,1.31,4.99,1.59,4.99,7.89v15.71
		c0,5.65,0,5.65-5.07,6.38v2.78h18.33V56.7z"/>
	<path class="st1" d="M-380.83,14.47c2.62,0,4.75-2.21,4.75-4.75c0-2.78-2.13-4.99-4.75-4.99c-2.86,0-4.99,2.21-4.99,4.99
		C-385.82,12.26-383.69,14.47-380.83,14.47z"/>
	<path class="st1" d="M-348.65,56.7c-5.15-0.74-5.15-0.74-5.15-6.38l0.41-48.68l-13.58,2.29v1.52c4.99,1.31,4.99,2.29,4.99,8.59
		v36.28c0,5.65,0,5.65-4.99,6.38v2.78h18.33V56.7z"/>
	<path class="st1" d="M-328.18,37.47c-8.84,3.11-15.95,5.07-15.95,13.25c0,5.07,3.85,8.75,10.06,8.75c4.75,0,8.67-2.95,11.05-6.71
		c0.57,4.99,3.19,6.71,6.63,6.71c3.6,0,6.55-2.05,7.69-3.52l-1.23-2.45c-0.49,0.33-1.23,0.82-2.13,0.82c-1.64,0-2.86-1.15-2.78-5.56
		l0.16-15.38c0-8.51-2.7-12.6-13.42-12.6c-8.59,0-13.91,4.25-13.91,8.51c0,1.93,0.85,3,2.03,3.56c2.55,1.21,5.44-0.66,5.85-3.45
		c0.56-3.78,2.57-5.18,5.13-5.18c4.42,0,6.14,3.19,6.05,8.92v2.45L-328.18,37.47z M-323.11,49.91c-1.64,2.05-4.01,3.68-7.2,3.68
		c-3.93,0-5.32-2.62-5.24-5.32c0.25-4.75,4.25-5.97,10.15-8.18l2.37-0.9L-323.11,49.91z"/>
	<path class="st1" d="M-285.52,52.85c-1.39,0.82-2.37,1.55-4.66,1.55c-3.6,0-4.99-2.37-4.99-8.43V34.2c0-3.27,0-8.09,0.08-10.55
		h10.15v-3.03l-10.15,0.08v-8.84h-1.4c-0.98,5.32-6.46,8.43-11.37,9.65v2.13h4.5v24.62c0,7.53,1.88,11.21,8.84,11.21
		c4.75,0,8.26-2.21,10.39-4.25L-285.52,52.85z"/>
	<path class="st1" d="M-262.83,53.01c-7.36,0-11.54-5.48-11.54-15.05v-0.9h21.35l0.9-0.9c0-9.74-4.26-15.38-13.42-15.38
		c-8.18,0-16.53,6.3-16.53,20.45c0,12.27,6.63,18.25,16.2,18.25c8.67,0,12.76-6.14,14.24-9.98l-1.29-1.02
		C-254.38,50.36-257.84,53.01-262.83,53.01z M-266.19,24.22c4.09,0,6.22,3.85,6.46,9.41h-14.32
		C-273.14,27.9-270.36,24.22-266.19,24.22z"/>
	<path class="st1" d="M-228.45,50.81c0,3.11-2.21,5.15-5.89,5.15c-5.56,0-9.49-3.52-10.8-8.35h-1.48v9.74
		c1.55,0.74,5.4,2.13,12.19,2.13c8.26,0,13.66-4.58,13.66-11.78c0-12.03-18.74-9.33-18.74-18.41c0-3.11,1.96-5.07,5.32-5.07
		c6.38,0.08,8.83,4.75,9.16,7.94h1.64V22.5c-0.9-0.49-4.42-1.72-9.82-1.72c-8.67,0-13.99,4.25-13.91,11.21
		C-247.1,45.32-228.45,41.72-228.45,50.81z"/>
	<path class="st1" d="M-231.97,124.16c-7.36,0-11.54-5.48-11.54-15.05v-0.9h21.35l0.9-0.9c0-9.74-4.26-15.38-13.42-15.38
		c-8.18,0-16.53,6.3-16.53,20.45c0,12.27,6.63,18.25,16.2,18.25c8.67,0,12.76-6.14,14.24-9.98l-1.29-1.02
		C-223.52,121.51-226.98,124.16-231.97,124.16z M-235.32,95.36c4.09,0,6.22,3.85,6.46,9.41h-14.32
		C-242.27,99.04-239.49,95.36-235.32,95.36z"/>
	<path class="st1" d="M-280.68,121.46V102.4c2.78-2.21,5.4-3.44,7.85-3.44c4.66,0,6.79,3.44,6.79,10.14v12.52
		c0,5.64,0,5.64-4.66,6.22v2.78h17.91v-2.78c-5.07-0.74-5.07-0.74-5.07-6.38v-16.44c0-8.1-3.03-12.02-10.31-12.02
		c-5.48,0-10.14,4.01-12.51,6.71l0.41-25.93l-13.58,2.29v2.54c4.99,1.31,4.99,1.31,4.99,7.61v35.25c0,5.64,0,5.64-4.99,6.38v2.78
		h17.75v-2.78C-280.68,127.11-280.68,127.11-280.68,121.46z"/>
	<path class="st1" d="M-325.2,85.45c-0.12-4.74,3.84-8.6,8.59-8.59c6.99,0.02,12.23,3.14,13.69,10.8h1.93
		c0.16-3.35,0.08-9.16-0.08-11.45c-1.64-1.06-7.53-3.03-15.62-3.03c-11.21,0-17.01,6.38-17.01,14.56c0,4.4,1.62,7.49,4.06,9.86
		c-9.94-4.13-26.07-12.17-37.46-24.5c-0.25-0.27-0.63-0.38-0.99-0.29c-0.36,0.09-0.64,0.37-0.73,0.73
		c-0.04,0.15-2.94,12.69,10.24,23.07c-1.81-0.25-3.43-0.11-4.46,0.77c-1.26,1.08-1.45,2.94-0.55,5.57c0.09,0.25,1.74,4.38,7.93,7.39
		c-0.25,0.15-0.48,0.34-0.67,0.57c-0.45,0.57-0.82,1.59-0.04,3.25c0.03,0.07,0.07,0.13,0.12,0.19c0.06,0.08,5.25,6.61,14.53,6.61
		c1.2,0,2.48-0.11,3.81-0.36c0.36,3.88,4.26,6.52,4.26,6.52c1.64,1.14,6.63,4.15,16.35,3.37c11.82-0.95,19.57-8.97,19.57-17.31
		C-297.72,95.62-324.88,98.83-325.2,85.45z M-317.62,127.26c0,0-16.84,0.96-16.53-8.53c0.08-2.47-0.35-2.95-1.43-2.87
		c-1.07,0.08-1.72,1.2-2.05,2.21c-0.05,0.15-0.07,0.29-0.11,0.43c-10.26,2.19-16.13-4.41-16.86-5.29c-0.22-0.5-0.28-0.89-0.16-1.05
		c0.32-0.4,1.72-0.48,3.01-0.31c2.03,0.61,4.38,1.1,7.12,1.36c0.03,0,0.07,0,0.1,0c0.51,0,0.95-0.39,1-0.91
		c0.05-0.55-0.35-1.04-0.9-1.1c-2.22-0.21-4.16-0.58-5.86-1.04c-0.11-0.08-0.24-0.15-0.39-0.18c-0.12-0.03-0.33-0.06-0.59-0.1
		c-8.38-2.6-10.42-7.58-10.44-7.61c-0.34-0.98-0.79-2.72-0.04-3.36c1.37-1.17,6.02,0.26,9.89,2c0.76,0.39,1.55,0.78,2.37,1.16
		c0.5,0.23,1.08,0.02,1.32-0.47c0.24-0.49,0.05-1.08-0.43-1.33c-0.45-0.24-1.34-0.7-2.49-1.22c-15.26-7.98-16.33-18.69-16.06-23.06
		c17.95,18.28,45.6,26.79,45.88,26.88c0.06,0.02,0.13,0.01,0.19,0.02c7.22,3.22,14.84,5.52,14.84,12.67
		C-306.23,121.2-311.64,127.26-317.62,127.26z"/>
	<path class="st1" d="M-418.44,96.1v-2.47h-6.77l0.42-1.5c2.15-7.75,4.15-12.76,8.06-12.76c1.76,0,2.77,2.55,2.61,5.05
		c-0.05,0.84,0.8,1.47,1.59,1.18c1.43-0.53,2.39-1.47,2.71-2.64c0.72-2.6-1.68-6.06-5.43-6.06c-8.07,0-11.69,7.94-13.55,15.04
		l-0.45,1.69h-5.81v2.47h5.17c-2.23,9.12-4.42,19.27-7.29,29.62c-1.77,6.12-2.7,6.59-5.29,6.51c-0.95-0.03-2.06-1.8-2.06-1.8
		c-0.69-1.55-4.7-0.99-3.95,2.73c0.36,1.78,2.33,2.42,4.11,2.63c1.96,0.23,3.97-0.05,5.71-0.97c2.69-1.41,5.35-4.56,8.02-13.85
		c2.53-8.92,3.59-16.67,5.68-24.87H-418.44z"/>
	<path class="st1" d="M-404.17,92.75c-8.99,0-14.81,8.72-16.2,18.88c-1.11,8.07,1.73,11.59,8.31,11.59c8.92,0,14.8-8.66,16.19-18.82
		C-394.76,96.26-397.6,92.75-404.17,92.75z M-401.27,108.11c-2.11,7.81-5.64,12.63-9.81,12.63c-4.3,0-6.12-4.75-3.78-13.22
		c2.07-7.49,5.53-12.31,9.7-12.31C-400.87,95.22-399.14,100.17-401.27,108.11z"/>
	<path class="st1" d="M-372.81,95.65c0.17-1.43-0.66-2.6-2.49-2.6c-3.65,0-7.94,5.4-12.4,16.02h-0.15c0.96-2.54,2.35-5.99,3.36-9.57
		l1.85-6.19c-1.5,0-6.89,0.98-9.16,1.5l-0.33,1.69c4.17,1.04,4.17,1.04,2.9,6.25l-4.26,17.58l-0.61,2.6l3.31,0
		c2.76-8.33,6.38-14.85,8.61-18.75c2.55-4.43,3.24-6.25,5.52-6.25c0.72,0,1.85,0.33,2.25,0.78
		C-373.45,97.66-372.92,96.49-372.81,95.65z"/>
</g>
<path d="M-95.79,35.9c-0.31-12.82,10.4-23.26,23.22-23.22c18.91,0.07,33.07,8.49,37.03,29.2h5.21c0.44-9.07,0.22-24.77-0.22-30.97
	c-4.42-2.87-20.35-8.18-42.25-8.18c-30.3,0-46.01,17.25-46.01,39.37c0,11.87,4.35,20.24,10.94,26.65
	c-26.89-11.18-70.47-32.91-101.26-66.24c-0.68-0.74-1.7-1.04-2.67-0.79c-0.97,0.25-1.72,1.01-1.96,1.98
	c-0.1,0.4-7.96,34.32,27.69,62.39c-4.88-0.68-9.28-0.31-12.06,2.07c-3.41,2.91-3.92,7.96-1.48,15.06
	c0.25,0.67,4.69,11.85,21.45,19.97c-0.69,0.41-1.3,0.92-1.8,1.55c-1.21,1.53-2.22,4.3-0.11,8.8c0.09,0.18,0.19,0.35,0.31,0.51
	c0.16,0.21,14.21,17.88,39.29,17.88c3.25,0,6.68-0.3,10.29-0.97c0.97,10.48,11.54,17.62,11.54,17.62
	c4.42,3.1,17.94,11.23,44.22,9.12c31.97-2.57,52.93-24.25,52.93-46.81C-21.48,63.4-94.91,72.07-95.79,35.9z M-75.27,148.96
	c0,0-45.54,2.6-44.7-23.07c0.22-6.69-0.95-7.99-3.87-7.77c-2.89,0.22-4.64,3.23-5.55,5.98c-0.14,0.41-0.25,0.83-0.35,1.23
	c-27.73,5.89-43.56-11.99-45.54-14.38c-0.59-1.34-0.75-2.42-0.42-2.83c0.86-1.09,4.64-1.29,8.11-0.83
	c5.49,1.66,11.86,2.97,19.27,3.69c0.09,0.01,0.18,0.01,0.26,0.01c1.38,0,2.57-1.05,2.7-2.46c0.14-1.49-0.95-2.82-2.44-2.97
	c-5.98-0.58-11.23-1.56-15.84-2.81c-0.31-0.23-0.66-0.4-1.06-0.49c-0.32-0.07-0.88-0.17-1.59-0.28
	c-22.65-7.02-28.18-20.5-28.22-20.59c-0.91-2.65-2.14-7.36-0.11-9.09c3.71-3.17,16.27,0.69,26.74,5.41
	c2.05,1.07,4.19,2.11,6.42,3.13c1.34,0.62,2.92,0.05,3.57-1.27c0.65-1.32,0.14-2.92-1.16-3.6c-1.21-0.64-3.64-1.89-6.73-3.3
	c-41.25-21.57-44.17-50.54-43.42-62.36c48.52,49.43,123.3,72.44,124.08,72.68c0.21,0.06,0.42,0.09,0.63,0.11
	c19.48,8.69,40,14.91,40,34.21C-44.48,132.56-59.12,148.96-75.27,148.96z"/>
<path class="st0" d="M120.25,35.9c-0.31-12.82,10.4-23.26,23.22-23.22c18.91,0.07,33.07,8.49,37.03,29.2h5.21
	c0.44-9.07,0.22-24.77-0.22-30.97c-4.42-2.87-20.35-8.18-42.25-8.18c-30.3,0-46.01,17.25-46.01,39.37
	c0,11.87,4.35,20.24,10.94,26.65C81.28,57.57,37.7,35.84,6.91,2.51c-0.68-0.74-1.7-1.04-2.67-0.79C3.27,1.97,2.52,2.73,2.28,3.7
	c-0.1,0.4-7.96,34.32,27.69,62.39c-4.88-0.68-9.28-0.31-12.06,2.07c-3.41,2.91-3.92,7.96-1.48,15.06
	c0.25,0.67,4.69,11.85,21.45,19.97c-0.69,0.41-1.3,0.92-1.8,1.55c-1.21,1.53-2.22,4.3-0.11,8.8c0.09,0.18,0.19,0.35,0.31,0.51
	c0.16,0.21,14.21,17.88,39.29,17.88c3.25,0,6.68-0.3,10.29-0.97c0.97,10.48,11.54,17.62,11.54,17.62
	c4.42,3.1,17.94,11.23,44.22,9.12c31.97-2.57,52.93-24.25,52.93-46.81C194.56,63.4,121.12,72.07,120.25,35.9z M140.77,148.96
	c0,0-45.54,2.6-44.7-23.07c0.22-6.69-0.95-7.99-3.87-7.77c-2.89,0.22-4.64,3.23-5.55,5.98c-0.14,0.41-0.25,0.83-0.35,1.23
	c-27.73,5.89-43.56-11.99-45.54-14.38c-0.59-1.34-0.75-2.42-0.42-2.83c0.86-1.09,4.64-1.29,8.11-0.83
	c5.49,1.66,11.86,2.97,19.27,3.69c0.09,0.01,0.18,0.01,0.26,0.01c1.38,0,2.57-1.05,2.7-2.46c0.14-1.49-0.95-2.82-2.44-2.97
	c-5.98-0.58-11.23-1.56-15.84-2.81c-0.31-0.23-0.66-0.4-1.06-0.49c-0.32-0.07-0.88-0.17-1.59-0.28
	c-22.65-7.02-28.18-20.5-28.22-20.59c-0.91-2.65-2.14-7.36-0.11-9.09c3.71-3.17,16.27,0.69,26.74,5.41
	c2.05,1.07,4.19,2.11,6.42,3.13c1.34,0.62,2.92,0.05,3.57-1.27c0.65-1.32,0.14-2.92-1.16-3.6c-1.21-0.64-3.64-1.89-6.73-3.3
	C9.01,51.1,6.1,22.13,6.84,10.31c48.52,49.43,123.3,72.44,124.08,72.68c0.21,0.06,0.42,0.09,0.64,0.11c19.48,8.69,40,14.91,40,34.21
	C171.55,132.56,156.91,148.96,140.77,148.96z"/>
<path class="st1" d="M336.28,35.9c-0.31-12.82,10.4-23.26,23.22-23.22c18.91,0.07,33.07,8.49,37.03,29.2h5.21
	c0.44-9.07,0.22-24.77-0.22-30.97c-4.42-2.87-20.35-8.18-42.25-8.18c-30.3,0-46.01,17.25-46.01,39.37
	c0,11.87,4.35,20.24,10.94,26.65c-26.89-11.18-70.47-32.91-101.26-66.24c-0.68-0.74-1.7-1.04-2.67-0.79
	c-0.97,0.25-1.72,1.01-1.96,1.98c-0.1,0.4-7.96,34.32,27.69,62.39c-4.88-0.68-9.28-0.31-12.06,2.07c-3.41,2.91-3.92,7.96-1.48,15.06
	c0.25,0.67,4.69,11.85,21.45,19.97c-0.69,0.41-1.3,0.92-1.8,1.55c-1.21,1.53-2.22,4.3-0.11,8.8c0.09,0.18,0.19,0.35,0.31,0.51
	c0.16,0.21,14.21,17.88,39.29,17.88c3.25,0,6.68-0.3,10.29-0.97c0.97,10.48,11.54,17.62,11.54,17.62
	c4.42,3.1,17.94,11.23,44.22,9.12c31.97-2.57,52.93-24.25,52.93-46.81C410.59,63.4,337.16,72.07,336.28,35.9z M356.8,148.96
	c0,0-45.54,2.6-44.7-23.07c0.22-6.69-0.95-7.99-3.87-7.77c-2.89,0.22-4.64,3.23-5.55,5.98c-0.14,0.41-0.25,0.83-0.35,1.23
	c-27.73,5.89-43.56-11.99-45.54-14.38c-0.59-1.34-0.75-2.42-0.42-2.83c0.86-1.09,4.64-1.29,8.11-0.83
	c5.49,1.66,11.86,2.97,19.27,3.69c0.09,0.01,0.18,0.01,0.26,0.01c1.38,0,2.57-1.05,2.7-2.46c0.14-1.49-0.95-2.82-2.44-2.97
	c-5.98-0.58-11.23-1.56-15.84-2.81c-0.31-0.23-0.66-0.4-1.06-0.49c-0.32-0.07-0.88-0.17-1.59-0.28
	c-22.65-7.02-28.18-20.5-28.22-20.59c-0.91-2.65-2.14-7.36-0.11-9.09c3.71-3.17,16.27,0.69,26.74,5.41
	c2.05,1.07,4.19,2.11,6.42,3.13c1.34,0.62,2.92,0.05,3.57-1.27c0.65-1.32,0.14-2.92-1.16-3.6c-1.21-0.64-3.64-1.89-6.73-3.3
	c-41.25-21.57-44.17-50.54-43.42-62.36c48.52,49.43,123.3,72.44,124.08,72.68c0.21,0.06,0.42,0.09,0.63,0.11
	c19.48,8.69,40,14.91,40,34.21C387.58,132.56,372.95,148.96,356.8,148.96z"/>
</svg>
